<svg xmlns="http://www.w3.org/2000/svg" viewBox="0 0 800 800">
  <defs><linearGradient id="floor" x1="0" y1="0" x2="1" y2="1"><stop stop-color="#ddd9ca"/><stop offset="1" stop-color="#8d9b91"/></linearGradient></defs>
  <rect width="800" height="800" fill="url(#floor)"/>
  <g stroke="#f3f0e8" stroke-width="4" opacity=".55"><path d="M0 160h800M0 320h800M0 480h800M0 640h800M160 0v800M320 0v800M480 0v800M640 0v800"/></g>
  <ellipse cx="400" cy="418" rx="272" ry="144" fill="#f0e8d8" stroke="#303730" stroke-width="12"/>
  <ellipse cx="400" cy="418" rx="106" ry="52" fill="#e46b3c"/>
  <g fill="#455149" stroke="#20241f" stroke-width="10"><path d="M174 188h110l28 140H148z"/><path d="M516 188h110l26 140H488z"/><path d="M166 535h108l-25 143H139z"/><path d="M526 535h108l28 143H552z"/></g>
  <g fill="#d6b79e"><circle cx="231" cy="256" r="38"/><circle cx="570" cy="256" r="38"/><circle cx="216" cy="608" r="38"/><circle cx="586" cy="608" r="38"/></g>
  <path d="M400 470v256M250 418H75M550 418h175" stroke="#283129" stroke-width="10" stroke-dasharray="18 15"/>
</svg>
