<svg xmlns="http://www.w3.org/2000/svg" viewBox="0 0 1200 900">
  <defs><pattern id="grid" width="30" height="30" patternUnits="userSpaceOnUse"><path d="M30 0H0v30" fill="none" stroke="#171914" stroke-opacity=".08"/></pattern><linearGradient id="g1"><stop stop-color="#c8cec6"/><stop offset="1" stop-color="#59675e"/></linearGradient><linearGradient id="g2" x1="0" y1="0" x2="1" y2="1"><stop stop-color="#f0d7d3"/><stop offset="1" stop-color="#a8405e"/></linearGradient><linearGradient id="g3"><stop stop-color="#16303a"/><stop offset="1" stop-color="#5ce4ef"/></linearGradient></defs>
  <rect width="1200" height="900" fill="#eef0e9"/><rect width="1200" height="900" fill="url(#grid)"/>
  <g transform="translate(70 155) rotate(-5)"><rect width="260" height="260" fill="url(#g1)"/><circle cx="170" cy="110" r="65" fill="#f1d496" opacity=".72"/><path d="M120 60h95l-20 108h-55z" fill="#222822"/><text x="20" y="238" fill="white" font-family="Georgia" font-size="27">Quiet Voltage</text></g>
  <g transform="translate(845 105) rotate(4)"><rect width="250" height="250" fill="#737b78"/><path d="M0 85L92 22v228H0zM78 54l172 42v154H78z" fill="#3e4541"/><text x="18" y="225" fill="white" font-family="Georgia" font-size="25">Concrete Poem</text></g>
  <g transform="translate(155 560) rotate(3)"><rect width="230" height="230" fill="url(#g2)"/><circle cx="115" cy="105" r="70" fill="#f3a8b6"/><circle cx="115" cy="105" r="26" fill="#77233f"/><text x="18" y="207" fill="white" font-family="Georgia" font-size="23">Soft Rebellion</text></g>
  <g transform="translate(820 540) rotate(-4)"><rect width="250" height="250" fill="#07141a"/><path d="M105 0c15 95 72 151 85 250h-92C115 161 55 98 60 0z" fill="url(#g3)"/><text x="18" y="225" fill="white" font-family="Georgia" font-size="25">Night Signal</text></g>
  <g transform="translate(465 295) rotate(-1)"><rect width="280" height="250" fill="#f4f3ec" stroke="#171914" stroke-width="4"/><text x="24" y="40" fill="#171914" font-family="monospace" font-size="12" letter-spacing="3">YOUR SIGNAL</text><text x="24" y="142" fill="#f14b24" font-family="Georgia" font-size="112">3</text><text x="93" y="143" fill="#f14b24" font-family="monospace" font-size="20">/3</text><text x="24" y="205" fill="#171914" font-family="Georgia" font-size="23">Make instinct legible.</text></g>
</svg>
